<svg xmlns="http://www.w3.org/2000/svg" xml:space="preserve" width="2000" height="2000" style="fill-rule:evenodd;clip-rule:evenodd;stroke-linejoin:round;stroke-miterlimit:2"><path d="M1000 58.5c519.628 0 941.5 421.872 941.5 941.5s-421.872 941.5-941.5 941.5S58.5 1519.628 58.5 1000 480.372 58.5 1000 58.5m437.989 1547.457q160.156-147.46 199.218-382.812h-297.851q-30.273 111.329-76.172 166.992-83.01 103.515-241.211 103.516-154.297 0-254.395-120.606-100.097-120.606-100.097-362.793t94.726-374.511q94.727-132.325 258.79-132.325 161.13 0 243.164 93.75 45.898 52.735 75.195 156.25h300.78q-6.835-134.766-99.609-268.555-167.968-238.281-531.249-238.281-271.486 0-447.267 177.734-202.147 204.103-202.147 581.056 0 348.632 177.734 548.828 177.735 199.218 488.281 199.219 250.976 0 412.11-147.462"/></svg>